<svg width="27" height="27" viewBox="0 0 27 27" fill="none" xmlns="http://www.w3.org/2000/svg">
<path d="M26.4793 23.7944L21.3957 18.8427C23.0359 16.8013 23.9258 14.2805 23.9225 11.6854C23.9225 9.37424 23.221 7.11499 21.9067 5.19334C20.5924 3.27169 18.7243 1.77394 16.5386 0.889502C14.353 0.00506306 11.948 -0.226346 9.62774 0.224537C7.30749 0.67542 5.17619 1.78834 3.50338 3.42258C1.83057 5.05681 0.691366 7.13894 0.229838 9.40569C-0.23169 11.6724 0.00518259 14.022 0.910502 16.1572C1.81582 18.2924 3.34893 20.1174 5.31595 21.4014C7.28297 22.6854 9.59556 23.3708 11.9613 23.3708C14.6176 23.374 17.198 22.5046 19.2875 20.9022L24.3561 25.8685C24.4951 26.0054 24.6605 26.1141 24.8427 26.1883C25.0249 26.2624 25.2203 26.3006 25.4177 26.3006C25.6151 26.3006 25.8105 26.2624 25.9927 26.1883C26.1749 26.1141 26.3403 26.0054 26.4793 25.8685C26.6194 25.7327 26.7306 25.5712 26.8065 25.3932C26.8824 25.2152 26.9215 25.0243 26.9215 24.8314C26.9215 24.6386 26.8824 24.4477 26.8065 24.2697C26.7306 24.0917 26.6194 23.9302 26.4793 23.7944ZM2.99032 11.6854C2.99032 9.95203 3.51646 8.25759 4.5022 6.81635C5.48794 5.37511 6.88901 4.2518 8.52824 3.58847C10.1675 2.92514 11.9712 2.75159 13.7114 3.08975C15.4516 3.42791 17.0501 4.26261 18.3047 5.48828C19.5593 6.71395 20.4137 8.27555 20.7598 9.97561C21.106 11.6757 20.9283 13.4378 20.2493 15.0392C19.5704 16.6407 18.4205 18.0094 16.9453 18.9724C15.47 19.9354 13.7356 20.4494 11.9613 20.4494C9.58203 20.4494 7.30023 19.5261 5.61785 17.8825C3.93547 16.2389 2.99032 14.0098 2.99032 11.6854Z" fill="#011729"/>
</svg>
