<svg width="22" height="22" viewBox="0 0 22 22" fill="none" xmlns="http://www.w3.org/2000/svg">
<path d="M8.75301 7.93455C8.05344 6.99306 7.66968 5.65827 7.66968 4.17876C7.66968 2 9.08334 1 11.003 1C13.003 1 14.3363 2 14.3363 4.17876C14.3363 5.66127 13.9287 6.99707 13.2767 7.93455L11.5008 10.8574C11.3176 11.159 10.69 11.1586 10.5077 10.8567L8.75301 7.93455Z" fill="#F9D622"/>
<path d="M7.43089 12.1098C6.31931 12.4842 4.93126 12.4367 3.52416 11.9795C1.45203 11.3062 0.937823 9.65272 1.53104 7.827C2.14906 5.9249 3.51215 4.96583 5.58427 5.63911C6.99422 6.09723 8.13867 6.89772 8.82878 7.80754L11.0598 10.3996C11.29 10.6671 11.0957 11.2638 10.7522 11.344L7.43089 12.1098Z" fill="#F9D622"/>
<path d="M11.0305 14.918C11.0431 16.0909 10.569 17.3963 9.69936 18.5932C8.41872 20.3559 6.68725 20.334 5.1342 19.2056C3.51618 18.0301 3.02527 16.4373 4.30592 14.6747C5.17731 13.4753 6.29228 12.6342 7.37082 12.2591L10.5255 10.9383C10.851 10.8019 11.3585 11.1712 11.3286 11.5226L11.0305 14.918Z" fill="#F9D622"/>
<path d="M14.7117 12.1949C15.8311 12.5454 16.9261 13.3997 17.7958 14.5967C19.0764 16.3593 18.5205 17.9993 16.9675 19.1276C15.3494 20.3032 13.683 20.2779 12.4023 18.5152C11.5309 17.3159 11.0756 15.9956 11.052 14.8539L10.7707 11.4455C10.7417 11.0937 11.2496 10.7252 11.5746 10.8623L14.7117 12.1949Z" fill="#F9D622"/>
<path d="M13.2406 7.84264C13.9198 6.88637 15.0707 6.10892 16.4778 5.65173C18.5499 4.97845 19.9378 6.01391 20.531 7.83963C21.1491 9.74173 20.61 11.3188 18.5379 11.9921C17.128 12.4502 15.7316 12.4753 14.6385 12.1449L11.31 11.3592C10.9665 11.2781 10.773 10.6811 11.0037 10.4144L13.2406 7.84264Z" fill="#F9D622"/>
<g style="mix-blend-mode:multiply">
<path d="M9.06943 10.3434C8.70677 11.4096 9.27714 12.5679 10.3434 12.9306C11.4096 13.2933 12.568 12.7229 12.9306 11.6567C13.2933 10.5904 12.7229 9.43206 11.6567 9.06941C10.5904 8.70675 9.43208 9.27712 9.06943 10.3434Z" fill="#F9D622"/>
<path fill-rule="evenodd" clip-rule="evenodd" d="M3.22839 10.7663L18.5211 10.9757L18.5176 11.2306L3.2249 11.0212L3.22839 10.7663Z" fill="#F9D622"/>
<path d="M18.6415 11.4872C18.4304 11.4843 18.2616 11.3108 18.2645 11.0997C18.2673 10.8885 18.4409 10.7197 18.652 10.7226C18.8632 10.7255 19.032 10.899 19.0291 11.1101C19.0262 11.3213 18.8527 11.4901 18.6415 11.4872Z" fill="#F9D622"/>
<path d="M3.34885 11.2778C3.1377 11.2749 2.96888 11.1014 2.97177 10.8903C2.97466 10.6791 3.14817 10.5103 3.35932 10.5132C3.57047 10.5161 3.73929 10.6896 3.7364 10.9007C3.73351 11.1119 3.56 11.2807 3.34885 11.2778Z" fill="#F9D622"/>
<path fill-rule="evenodd" clip-rule="evenodd" d="M4.8502 6.24268L17.0992 15.4009L16.9465 15.6051L4.69756 6.44683L4.8502 6.24268Z" fill="#F9D622"/>
<path d="M16.896 15.8855C16.7268 15.7591 16.6922 15.5195 16.8187 15.3503C16.9451 15.1812 17.1847 15.1466 17.3539 15.2731C17.523 15.3995 17.5576 15.6391 17.4311 15.8083C17.3047 15.9774 17.0651 16.012 16.896 15.8855Z" fill="#F9D622"/>
<path d="M4.647 6.7273C4.47788 6.60085 4.44328 6.36124 4.56973 6.19212C4.69618 6.023 4.93579 5.9884 5.10491 6.11485C5.27404 6.2413 5.30863 6.48091 5.18218 6.65003C5.05573 6.81915 4.81612 6.85375 4.647 6.7273Z" fill="#F9D622"/>
<path fill-rule="evenodd" clip-rule="evenodd" d="M8.82119 3.53627L13.3477 18.1452L13.1042 18.2206L8.57771 3.61172L8.82119 3.53627Z" fill="#F9D622"/>
<path d="M12.8985 18.4178C12.836 18.2161 12.9488 18.0019 13.1505 17.9394C13.3523 17.8769 13.5664 17.9898 13.6289 18.1915C13.6914 18.3932 13.5786 18.6074 13.3769 18.6699C13.1752 18.7324 12.961 18.6195 12.8985 18.4178Z" fill="#F9D622"/>
<path d="M8.37195 3.8089C8.30945 3.60719 8.4223 3.39301 8.62401 3.33051C8.82571 3.26802 9.03989 3.38087 9.10239 3.58257C9.16489 3.78428 9.05204 3.99846 8.85033 4.06096C8.64863 4.12346 8.43444 4.01061 8.37195 3.8089Z" fill="#F9D622"/>
<path fill-rule="evenodd" clip-rule="evenodd" d="M13.6246 3.68078L8.69973 18.1603L8.4584 18.0782L13.3833 3.5987L13.6246 3.68078Z" fill="#F9D622"/>
<path d="M8.17604 18.1168C8.24403 17.9169 8.46122 17.8099 8.66114 17.8779C8.86106 17.9459 8.96801 18.1631 8.90001 18.363C8.83201 18.5629 8.61482 18.6699 8.4149 18.6019C8.21498 18.5339 8.10804 18.3167 8.17604 18.1168Z" fill="#F9D622"/>
<path d="M13.1009 3.63728C13.1689 3.43736 13.3861 3.33042 13.586 3.39842C13.7859 3.46642 13.8929 3.68361 13.8249 3.88353C13.7569 4.08345 13.5397 4.19039 13.3398 4.12239C13.1398 4.05439 13.0329 3.8372 13.1009 3.63728Z" fill="#F9D622"/>
<path fill-rule="evenodd" clip-rule="evenodd" d="M17.4256 6.62109L4.93051 15.4405L4.78352 15.2322L17.2787 6.41284L17.4256 6.62109Z" fill="#F9D622"/>
<path d="M4.53241 15.0975C4.70493 14.9757 4.9435 15.0168 5.06527 15.1894C5.18704 15.3619 5.1459 15.6005 4.97338 15.7222C4.80085 15.844 4.56228 15.8029 4.44051 15.6303C4.31874 15.4578 4.35988 15.2192 4.53241 15.0975Z" fill="#F9D622"/>
<path d="M17.0275 6.27808C17.2001 6.15631 17.4386 6.19745 17.5604 6.36997C17.6822 6.54249 17.641 6.78107 17.4685 6.90284C17.296 7.02461 17.0574 6.98346 16.9356 6.81094C16.8139 6.63842 16.855 6.39985 17.0275 6.27808Z" fill="#F9D622"/>
<path fill-rule="evenodd" clip-rule="evenodd" d="M18.7725 11.2341L3.47981 11.0246L3.4833 10.7698L18.776 10.9792L18.7725 11.2341Z" fill="#F9D622"/>
<path d="M3.35932 10.5132C3.57047 10.5161 3.73929 10.6896 3.7364 10.9007C3.73351 11.1119 3.56 11.2807 3.34885 11.2778C3.1377 11.2749 2.96888 11.1014 2.97177 10.8903C2.97466 10.6791 3.14817 10.5103 3.35932 10.5132Z" fill="#F9D622"/>
<path d="M18.652 10.7226C18.8632 10.7255 19.032 10.899 19.0291 11.1101C19.0262 11.3213 18.8527 11.4901 18.6415 11.4872C18.4304 11.4843 18.2616 11.3108 18.2645 11.0997C18.2673 10.8885 18.4409 10.7197 18.652 10.7226Z" fill="#F9D622"/>
<path fill-rule="evenodd" clip-rule="evenodd" d="M17.1507 15.7577L4.90173 6.59945L5.05437 6.3953L17.3033 15.5535L17.1507 15.7577Z" fill="#F9D622"/>
<path d="M5.10491 6.11485C5.27404 6.2413 5.30863 6.48091 5.18218 6.65003C5.05573 6.81915 4.81612 6.85375 4.647 6.7273C4.47788 6.60085 4.44328 6.36124 4.56973 6.19212C4.69618 6.023 4.93579 5.9884 5.10491 6.11485Z" fill="#F9D622"/>
<path d="M17.3539 15.2731C17.523 15.3995 17.5576 15.6391 17.4311 15.8083C17.3047 15.9774 17.0651 16.012 16.896 15.8855C16.7268 15.7591 16.6922 15.5195 16.8187 15.3503C16.9451 15.1812 17.1847 15.1466 17.3539 15.2731Z" fill="#F9D622"/>
<path fill-rule="evenodd" clip-rule="evenodd" d="M13.1797 18.4641L8.65315 3.85523L8.89663 3.77979L13.4232 18.3887L13.1797 18.4641Z" fill="#F9D622"/>
<path d="M9.10239 3.58257C9.16489 3.78428 9.05204 3.99846 8.85033 4.06096C8.64863 4.12346 8.43444 4.01061 8.37195 3.8089C8.30945 3.60719 8.4223 3.39301 8.62401 3.33051C8.82571 3.26802 9.03989 3.38087 9.10239 3.58257Z" fill="#F9D622"/>
<path d="M13.6289 18.1915C13.6914 18.3932 13.5786 18.6074 13.3769 18.6699C13.1752 18.7324 12.961 18.6195 12.8985 18.4178C12.836 18.2161 12.9488 18.0019 13.1505 17.9394C13.3523 17.8769 13.5664 17.9898 13.6289 18.1915Z" fill="#F9D622"/>
<path fill-rule="evenodd" clip-rule="evenodd" d="M8.37631 18.3196L13.3012 3.84009L13.5425 3.92217L8.61763 18.4017L8.37631 18.3196Z" fill="#F9D622"/>
<path d="M13.8249 3.88353C13.7569 4.08345 13.5397 4.19039 13.3398 4.12239C13.1398 4.05439 13.0329 3.8372 13.1009 3.63728C13.1689 3.43736 13.3861 3.33042 13.586 3.39842C13.7859 3.46642 13.8929 3.68361 13.8249 3.88353Z" fill="#F9D622"/>
<path d="M8.90001 18.363C8.83201 18.5629 8.61482 18.6699 8.4149 18.6019C8.21498 18.5339 8.10804 18.3167 8.17604 18.1168C8.24403 17.9169 8.46122 17.8099 8.66114 17.8779C8.86106 17.9459 8.96801 18.1631 8.90001 18.363Z" fill="#F9D622"/>
<path fill-rule="evenodd" clip-rule="evenodd" d="M4.57524 15.3793L17.0704 6.55988L17.2174 6.76813L4.72223 15.5875L4.57524 15.3793Z" fill="#F9D622"/>
<path d="M17.4685 6.90284C17.296 7.02461 17.0574 6.98346 16.9356 6.81094C16.8139 6.63842 16.855 6.39985 17.0275 6.27808C17.2001 6.15631 17.4386 6.19745 17.5604 6.36997C17.6822 6.54249 17.641 6.78107 17.4685 6.90284Z" fill="#F9D622"/>
<path d="M4.97338 15.7222C4.80085 15.844 4.56228 15.8029 4.44051 15.6303C4.31874 15.4578 4.35988 15.2192 4.53241 15.0975C4.70493 14.9757 4.9435 15.0168 5.06527 15.1894C5.18704 15.3619 5.1459 15.6005 4.97338 15.7222Z" fill="#F9D622"/>
<circle cx="1.01961" cy="1.01961" r="1.01961" transform="matrix(-0.946736 -0.32201 -0.32201 0.946736 12.2936 10.363)" fill="#F9D622"/>
</g>
</svg>
