<svg width="24" height="24" viewBox="0 0 24 24" fill="none" xmlns="http://www.w3.org/2000/svg">
<path d="M15.26 22.25H8.73998C3.82998 22.25 1.72998 20.15 1.72998 15.24V15.11C1.72998 10.67 3.47998 8.53003 7.39998 8.16003C7.79998 8.13003 8.17998 8.43003 8.21998 8.84003C8.25998 9.25003 7.95998 9.62003 7.53998 9.66003C4.39998 9.95003 3.22998 11.43 3.22998 15.12V15.25C3.22998 19.32 4.66998 20.76 8.73998 20.76H15.26C19.33 20.76 20.77 19.32 20.77 15.25V15.12C20.77 11.41 19.58 9.93003 16.38 9.66003C15.97 9.62003 15.66 9.26003 15.7 8.85003C15.74 8.44003 16.09 8.13003 16.51 8.17003C20.49 8.51003 22.27 10.66 22.27 15.13V15.26C22.27 20.15 20.17 22.25 15.26 22.25Z" fill="#171717"/>
<path d="M12 15.7501C11.59 15.7501 11.25 15.4101 11.25 15.0001V3.62012C11.25 3.21012 11.59 2.87012 12 2.87012C12.41 2.87012 12.75 3.21012 12.75 3.62012V15.0001C12.75 15.4101 12.41 15.7501 12 15.7501Z" fill="#171717"/>
<path d="M15.3501 6.59994C15.1601 6.59994 14.9701 6.52994 14.8201 6.37994L12.0001 3.55994L9.18009 6.37994C8.89009 6.66994 8.41009 6.66994 8.12009 6.37994C7.83009 6.08994 7.83009 5.60994 8.12009 5.31994L11.4701 1.96994C11.7601 1.67994 12.2401 1.67994 12.5301 1.96994L15.8801 5.31994C16.1701 5.60994 16.1701 6.08994 15.8801 6.37994C15.7401 6.52994 15.5401 6.59994 15.3501 6.59994Z" fill="#171717"/>
</svg>
