<svg width="30" height="30" viewBox="0 0 30 30" fill="none" xmlns="http://www.w3.org/2000/svg">
<g clip-path="url(#clip0_31_505)">
<path fill-rule="evenodd" clip-rule="evenodd" d="M26.2247 23.4729H9.8833C9.64533 23.4737 9.40953 23.4276 9.18938 23.3373C8.96924 23.2469 8.76905 23.1141 8.60029 22.9463C8.43152 22.7785 8.29748 22.5792 8.20583 22.3595C8.11418 22.1399 8.06672 21.9044 8.06616 21.6664V1.80644C8.06672 1.56847 8.11418 1.33295 8.20583 1.11334C8.29748 0.893728 8.43152 0.694336 8.60029 0.526566C8.76905 0.358795 8.96924 0.225936 9.18938 0.135586C9.40953 0.0452355 9.64533 -0.000834076 9.8833 1.14442e-05H26.2247C26.4624 -0.000834078 26.6979 0.0451801 26.9178 0.135423C27.1377 0.225665 27.3377 0.358367 27.5062 0.525938C27.6748 0.69351 27.8087 0.892665 27.9002 1.11202C27.9918 1.33137 28.0392 1.56661 28.0397 1.8043V21.6643C28.0394 21.9023 27.9923 22.1378 27.9009 22.3576C27.8095 22.5773 27.6757 22.7768 27.5071 22.9448C27.3385 23.1128 27.1385 23.2459 26.9185 23.3365C26.6984 23.4271 26.4627 23.4734 26.2247 23.4729ZM19.7747 28.1872C19.775 28.4255 19.7282 28.6615 19.6371 28.8817C19.546 29.1019 19.4123 29.302 19.2436 29.4704C19.075 29.6389 18.8748 29.7723 18.6545 29.8632C18.4341 29.9541 18.1981 30.0006 17.9597 30H3.42901C2.9478 29.9983 2.48681 29.8063 2.14673 29.4658C1.80666 29.1253 1.61514 28.6641 1.61401 28.1829V10.14C1.61401 9.65694 1.80591 9.19365 2.1475 8.85207C2.48908 8.51048 2.95237 8.31858 3.43544 8.31858C3.91852 8.31858 4.3818 8.51048 4.72339 8.85207C5.06497 9.19365 5.25687 9.65694 5.25687 10.14V25.5364C5.25687 25.7638 5.34718 25.9818 5.50792 26.1425C5.66867 26.3033 5.88669 26.3936 6.11401 26.3936H17.9597C18.4392 26.3924 18.8996 26.5815 19.2398 26.9194C19.5801 27.2572 19.7725 27.7162 19.7747 28.1957V28.1872ZM15.3304 5.41715H20.7862C21.0285 5.40881 21.27 5.44932 21.4963 5.53629C21.7226 5.62326 21.9291 5.7549 22.1035 5.92337C22.2779 6.09183 22.4166 6.29368 22.5113 6.51688C22.606 6.74007 22.6548 6.98005 22.6548 7.22251C22.6548 7.46497 22.606 7.70495 22.5113 7.92815C22.4166 8.15134 22.2779 8.35319 22.1035 8.52166C21.9291 8.69012 21.7226 8.82176 21.4963 8.90873C21.27 8.9957 21.0285 9.03622 20.7862 9.02787H15.3304C15.0881 9.03622 14.8466 8.9957 14.6203 8.90873C14.394 8.82176 14.1875 8.69012 14.0131 8.52166C13.8387 8.35319 13.7 8.15134 13.6053 7.92815C13.5106 7.70495 13.4618 7.46497 13.4618 7.22251C13.4618 6.98005 13.5106 6.74007 13.6053 6.51688C13.7 6.29368 13.8387 6.09183 14.0131 5.92337C14.1875 5.7549 14.394 5.62326 14.6203 5.53629C14.8466 5.44932 15.0881 5.40881 15.3304 5.41715ZM15.3304 12.1843H20.7862C21.0285 12.1759 21.27 12.2165 21.4963 12.3034C21.7226 12.3904 21.9291 12.522 22.1035 12.6905C22.2779 12.859 22.4166 13.0608 22.5113 13.284C22.606 13.5072 22.6548 13.7472 22.6548 13.9897C22.6548 14.2321 22.606 14.4721 22.5113 14.6953C22.4166 14.9185 22.2779 15.1203 22.1035 15.2888C21.9291 15.4573 21.7226 15.5889 21.4963 15.6759C21.27 15.7628 21.0285 15.8034 20.7862 15.795H15.3304C15.0881 15.8034 14.8466 15.7628 14.6203 15.6759C14.394 15.5889 14.1875 15.4573 14.0131 15.2888C13.8387 15.1203 13.7 14.9185 13.6053 14.6953C13.5106 14.4721 13.4618 14.2321 13.4618 13.9897C13.4618 13.7472 13.5106 13.5072 13.6053 13.284C13.7 13.0608 13.8387 12.859 14.0131 12.6905C14.1875 12.522 14.394 12.3904 14.6203 12.3034C14.8466 12.2165 15.0881 12.1759 15.3304 12.1843Z" fill="#9E77ED"/>
</g>
<defs>
<clipPath id="clip0_31_505">
<rect width="30" height="30" fill="white"/>
</clipPath>
</defs>
</svg>
