<svg width="30" height="30" viewBox="0 0 30 30" fill="none" xmlns="http://www.w3.org/2000/svg">
<g clip-path="url(#clip0_31_416)">
<path d="M18 22.0311V27.3132C18 27.711 18.158 28.0926 18.4393 28.3739C18.7206 28.6552 19.1022 28.8132 19.5 28.8132H28.5C28.8978 28.8132 29.2794 28.6552 29.5607 28.3739C29.842 28.0926 30 27.711 30 27.3132V14.0532C30 13.738 29.938 13.4259 29.8174 13.1347C29.6968 12.8435 29.52 12.5789 29.2971 12.3561L16.695 1.89892C16.4725 1.67617 16.2083 1.49945 15.9174 1.37889C15.6266 1.25832 15.3148 1.19626 15 1.19626C14.6852 1.19626 14.3734 1.25832 14.0826 1.37889C13.7917 1.49945 13.5275 1.67617 13.305 1.89892L0.702857 12.3561C0.480002 12.5789 0.303229 12.8435 0.182633 13.1347C0.0620359 13.4259 -2.27344e-05 13.738 6.24752e-09 14.0532L6.24752e-09 27.3132C6.24752e-09 27.711 0.158035 28.0926 0.43934 28.3739C0.720644 28.6552 1.10218 28.8132 1.5 28.8132H10.5C10.8978 28.8132 11.2794 28.6552 11.5607 28.3739C11.842 28.0926 12 27.711 12 27.3132V22.0311C12 21.2354 12.3161 20.4724 12.8787 19.9097C13.4413 19.3471 14.2044 19.0311 15 19.0311C15.7956 19.0311 16.5587 19.3471 17.1213 19.9097C17.6839 20.4724 18 21.2354 18 22.0311Z" fill="#9E77ED"/>
</g>
<defs>
<clipPath id="clip0_31_416">
<rect width="30" height="30" fill="white"/>
</clipPath>
</defs>
</svg>
