<svg width="30" height="30" viewBox="0 0 30 30" fill="none" xmlns="http://www.w3.org/2000/svg">
<g clip-path="url(#clip0_35_1421)">
<path fill-rule="evenodd" clip-rule="evenodd" d="M23.428 26.8609C23.4353 26.0363 23.1005 25.2398 22.491 24.6322L12.5307 15.0017L22.491 5.37112C23.1013 4.76529 23.4401 3.97161 23.4401 3.14778C23.4401 2.32394 23.1013 1.53026 22.491 0.924436C22.1992 0.633098 21.8442 0.40047 21.4488 0.241326C21.0534 0.0821817 20.6262 0 20.1942 0C19.7622 0 19.335 0.0821817 18.9396 0.241326C18.5442 0.40047 18.1893 0.633098 17.8974 0.924436L5.64142 12.7794C5.0286 13.3828 4.68799 14.1759 4.68799 14.9995C4.68799 15.8232 5.0286 16.6163 5.64142 17.2197L17.8857 29.0789C18.1775 29.3702 18.5324 29.6029 18.9278 29.762C19.3233 29.9212 19.7505 30.0033 20.1825 30.0033C20.6145 30.0033 21.0417 29.9212 21.4371 29.762C21.8325 29.6029 22.1874 29.3702 22.4793 29.0789C23.088 28.4752 23.423 27.6822 23.4163 26.8609" fill="#9E77ED"/>
</g>
<defs>
<clipPath id="clip0_35_1421">
<rect width="30" height="30" fill="white"/>
</clipPath>
</defs>
</svg>
