<svg width="102" height="60" viewBox="0 0 102 60" fill="none" xmlns="http://www.w3.org/2000/svg">
<path d="M0 10C0 4.47715 4.47715 0 10 0H92C97.5228 0 102 4.47715 102 10V50C102 55.5228 97.5228 60 92 60H10C4.47715 60 0 55.5228 0 50V10Z" fill="#F2F4F5"/>
<path d="M58.2266 11.6667C58.2266 11.6667 55.5002 11.7328 53.0002 14.2328C50.5002 16.7328 50.9218 20.1007 50.9218 20.1007C50.9218 20.1007 53.3966 20.5532 56.0379 17.912C58.6792 15.2708 58.2266 11.6667 58.2266 11.6667Z" fill="#090A0A"/>
<path d="M51.2075 22.2326C49.3647 22.22 48.2327 20.6288 45.0943 20.6288C42.2704 20.6288 39.4395 22.4508 38.2358 24.2137C37.0377 25.9684 36 27.893 36 31.7986C36 35.7043 37.8805 42.4212 42.5047 46.9684C43.2967 47.7471 44.345 48.3325 45.5409 48.3687C47.6918 48.4338 49.0126 46.8237 51.7296 46.8237C54.4465 46.8237 55.2641 48.3687 57.717 48.3687C58.8324 48.3687 60.1044 47.8607 61.3396 46.5471C62.9245 44.8615 64.8912 41.6514 65.893 38.5722C65.893 38.5722 60.8764 36.6348 60.937 31.0502C60.9874 26.4213 64.9182 24.1445 64.9182 24.1445C64.9182 24.1445 62.6225 20.4841 57.7421 20.4841C54.3711 20.5093 52.8616 22.2439 51.2075 22.2326Z" fill="#090A0A"/>
</svg>
