<svg width="102" height="60" viewBox="0 0 102 60" fill="none" xmlns="http://www.w3.org/2000/svg">
<path d="M0 10C0 4.47715 4.47715 0 10 0H92C97.5228 0 102 4.47715 102 10V50C102 55.5228 97.5228 60 92 60H10C4.47715 60 0 55.5228 0 50V10Z" fill="#F2F4F5"/>
<path fill-rule="evenodd" clip-rule="evenodd" d="M71.2969 29.9576C71.2969 18.8455 62.3417 9.83594 51.2969 9.83594C40.252 9.83594 31.2969 18.8455 31.2969 29.9576C31.2969 39.9999 38.6096 48.3247 48.1722 49.8359V35.7753H43.0927V29.9576H48.1722V25.5235C48.1722 20.481 51.1591 17.6938 55.7266 17.6938C57.9147 17.6938 60.2042 18.0871 60.2042 18.0871V23.039H57.6813C55.1979 23.039 54.4216 24.5897 54.4216 26.1827V29.9574H59.9678L59.0818 35.7752H54.4214V49.8358C63.984 48.3274 71.2969 40.0027 71.2969 29.9576Z" fill="#0078FF"/>
</svg>
