<svg width="102" height="60" viewBox="0 0 102 60" fill="none" xmlns="http://www.w3.org/2000/svg">
<path d="M0 10C0 4.47715 4.47715 0 10 0H92C97.5228 0 102 4.47715 102 10V50C102 55.5228 97.5228 60 92 60H10C4.47715 60 0 55.5228 0 50V10Z" fill="#F2F4F5"/>
<g clip-path="url(#clip0_55_493)">
<path d="M70.8194 30.2964C70.8194 28.9368 70.7091 27.5699 70.474 26.2324H51.6094V33.9341H62.4122C61.964 36.418 60.5236 38.6153 58.4144 40.0116V45.0088H64.8594C68.6441 41.5255 70.8194 36.3812 70.8194 30.2964Z" fill="#4285F4"/>
<path d="M51.6093 49.8375C57.0034 49.8375 61.5524 48.0664 64.8667 45.0093L58.4217 40.012C56.6286 41.2319 54.3137 41.9227 51.6167 41.9227C46.399 41.9227 41.9749 38.4026 40.3876 33.6699H33.7368V38.8215C37.132 45.5751 44.0473 49.8375 51.6093 49.8375V49.8375Z" fill="#34A853"/>
<path d="M40.3803 33.67C39.5425 31.186 39.5425 28.4963 40.3803 26.0124V20.8608H33.7369C30.9002 26.5121 30.9002 33.1702 33.7369 38.8215L40.3803 33.67V33.67Z" fill="#FBBC04"/>
<path d="M51.6093 17.752C54.4607 17.7079 57.2165 18.7809 59.2815 20.7504L64.9916 15.0403C61.376 11.6451 56.5772 9.77849 51.6093 9.83729C44.0473 9.83729 37.132 14.0996 33.7368 20.8606L40.3802 26.0122C41.9602 21.2722 46.3916 17.752 51.6093 17.752V17.752Z" fill="#EA4335"/>
</g>
<defs>
<clipPath id="clip0_55_493">
<rect width="40" height="40" fill="white" transform="translate(31.2969 9.83594)"/>
</clipPath>
</defs>
</svg>
