<svg width="30" height="30" viewBox="0 0 30 30" fill="none" xmlns="http://www.w3.org/2000/svg">
<g clip-path="url(#clip0_31_542)">
<path d="M19.6071 0H10.3929C7.63717 0.00339946 4.99536 1.09847 3.047 3.04496C1.09864 4.99145 0.0028353 7.63041 0 10.3829L0 19.5864C0.0039692 22.3382 1.10027 24.976 3.04851 26.9216C4.99675 28.8672 7.63791 29.9616 10.3929 29.965H19.6071C22.3628 29.9616 25.0046 28.8666 26.953 26.9201C28.9014 24.9736 29.9972 22.3346 30 19.5821V10.3786C29.996 7.62687 28.8997 4.98901 26.9515 3.04344C25.0032 1.09788 22.3621 0.00339714 19.6071 0V0ZM20.91 17.1079H17.1279V20.8856C17.1103 21.4374 16.8786 21.9606 16.4816 22.3447C16.0847 22.7288 15.5537 22.9436 15.0011 22.9436C14.4484 22.9436 13.9174 22.7288 13.5205 22.3447C13.1236 21.9606 12.8918 21.4374 12.8743 20.8856V17.1079H9.09214C8.80717 17.1169 8.52328 17.0687 8.25735 16.966C7.99141 16.8633 7.74885 16.7083 7.54407 16.5101C7.33928 16.312 7.17646 16.0747 7.06526 15.8125C6.95407 15.5503 6.89677 15.2684 6.89677 14.9836C6.89677 14.6988 6.95407 14.4169 7.06526 14.1547C7.17646 13.8925 7.33928 13.6552 7.54407 13.4571C7.74885 13.2589 7.99141 13.1039 8.25735 13.0012C8.52328 12.8985 8.80717 12.8502 9.09214 12.8593H12.8743V9.08154C12.8652 8.7969 12.9136 8.51335 13.0164 8.24772C13.1192 7.9821 13.2744 7.73982 13.4728 7.53527C13.6711 7.33073 13.9087 7.1681 14.1712 7.05703C14.4337 6.94596 14.716 6.88873 15.0011 6.88873C15.2862 6.88873 15.5684 6.94596 15.8309 7.05703C16.0935 7.1681 16.331 7.33073 16.5294 7.53527C16.7278 7.73982 16.883 7.9821 16.9858 8.24772C17.0886 8.51335 17.1369 8.7969 17.1279 9.08154V12.8593H20.91C21.4624 12.8768 21.9863 13.1083 22.3708 13.5048C22.7553 13.9012 22.9703 14.4316 22.9703 14.9836C22.9703 15.5356 22.7553 16.0659 22.3708 16.4624C21.9863 16.8589 21.4624 17.0904 20.91 17.1079Z" fill="#9E77ED"/>
</g>
<defs>
<clipPath id="clip0_31_542">
<rect width="30" height="29.965" fill="white"/>
</clipPath>
</defs>
</svg>
