<svg width="30" height="30" viewBox="0 0 30 30" fill="none" xmlns="http://www.w3.org/2000/svg">
<g clip-path="url(#clip0_31_551)">
<path d="M18 22.0311V27.3132C18 27.7111 18.158 28.0926 18.4393 28.3739C18.7206 28.6552 19.1022 28.8132 19.5 28.8132H28.5C28.8978 28.8132 29.2794 28.6552 29.5607 28.3739C29.842 28.0926 30 27.7111 30 27.3132V14.0532C30 13.7381 29.938 13.426 29.8174 13.1348C29.6968 12.8436 29.52 12.579 29.2971 12.3561L16.695 1.89895C16.4725 1.6762 16.2083 1.49948 15.9174 1.37892C15.6266 1.25835 15.3148 1.19629 15 1.19629C14.6852 1.19629 14.3734 1.25835 14.0826 1.37892C13.7917 1.49948 13.5275 1.6762 13.305 1.89895L0.702857 12.3561C0.480002 12.579 0.303229 12.8436 0.182633 13.1348C0.0620359 13.426 -2.27344e-05 13.7381 6.24752e-09 14.0532L6.24752e-09 27.3132C6.24752e-09 27.7111 0.158035 28.0926 0.43934 28.3739C0.720644 28.6552 1.10218 28.8132 1.5 28.8132H10.5C10.8978 28.8132 11.2794 28.6552 11.5607 28.3739C11.842 28.0926 12 27.7111 12 27.3132V22.0311C12 21.2354 12.3161 20.4724 12.8787 19.9098C13.4413 19.3472 14.2044 19.0311 15 19.0311C15.7956 19.0311 16.5587 19.3472 17.1213 19.9098C17.6839 20.4724 18 21.2354 18 22.0311Z" fill="#C4C4C4"/>
</g>
<defs>
<clipPath id="clip0_31_551">
<rect width="30" height="30" fill="white"/>
</clipPath>
</defs>
</svg>
