<svg width="30" height="30" viewBox="0 0 30 30" fill="none" xmlns="http://www.w3.org/2000/svg">
<g clip-path="url(#clip0_31_602)">
<path d="M29.5821 19.9413L26.2799 16.1056C26.0168 15.8425 25.8081 15.5302 25.6658 15.1864C25.5235 14.8426 25.4504 14.4741 25.4506 14.102V10.8385C25.3716 8.15564 24.2829 5.60148 22.4022 3.6866C20.5215 1.77172 17.9873 0.637223 15.3064 0.509909C12.5636 0.409612 9.89167 1.39364 7.86912 3.24895C5.84657 5.10426 4.63615 7.68154 4.49994 10.4228V14.102C4.50017 14.4741 4.42705 14.8426 4.28475 15.1864C4.14245 15.5302 3.93378 15.8425 3.67065 16.1056L0.428512 19.9413C0.230945 20.1398 0.0965547 20.3924 0.0422774 20.6671C-0.012 20.9419 0.0162644 21.2265 0.123509 21.4853C0.230753 21.744 0.412178 21.9652 0.64492 22.1209C0.877662 22.2767 1.15131 22.3601 1.43137 22.3606H28.5814C28.8617 22.3607 29.1358 22.2776 29.3688 22.1218C29.6019 21.9661 29.7835 21.7446 29.8907 21.4856C29.9978 21.2265 30.0257 20.9415 29.9708 20.6666C29.9158 20.3917 29.7806 20.1393 29.5821 19.9413Z" fill="#9E77ED"/>
<path d="M9.53564 25.2446C9.77744 26.4945 10.4646 27.6142 11.4696 28.3957C12.4746 29.1772 13.729 29.5674 14.9999 29.4939C16.2711 29.5675 17.5259 29.1773 18.5312 28.3959C19.5365 27.6144 20.2241 26.4947 20.4664 25.2446H9.53564Z" fill="#9E77ED"/>
</g>
<defs>
<clipPath id="clip0_31_602">
<rect width="30" height="30" fill="white"/>
</clipPath>
</defs>
</svg>
